<svg width="52" height="52" viewBox="0 0 52 52" fill="none" xmlns="http://www.w3.org/2000/svg">
<g filter="url(#filter0_d_65_844)">
<rect x="4" width="44" height="44" rx="22" fill="#F2F7FD" shape-rendering="crispEdges"/>
<path fill-rule="evenodd" clip-rule="evenodd" d="M21.6353 11.0002C20.8525 11.0002 20.0709 11.1106 19.3278 11.36C14.7488 12.8487 13.0988 17.8731 14.4771 22.2648C15.2587 24.509 16.5365 26.5572 18.2101 28.2308C20.6056 30.5507 23.2345 32.6101 26.0642 34.3841L26.3744 34.5714L26.6969 34.3717C29.5367 32.6101 32.1804 30.5507 34.5983 28.2184C36.2607 26.5448 37.5397 24.509 38.3337 22.2648C39.7356 17.8731 38.0856 12.8487 33.4569 11.3339C33.0971 11.2099 32.7262 11.123 32.354 11.0746H32.2052C31.8566 11.0238 31.5104 11.0002 31.1631 11.0002H31.0266C30.245 11.0238 29.4883 11.1602 28.7551 11.4096H28.6819C28.6323 11.4332 28.595 11.4592 28.5702 11.4828C28.2961 11.5709 28.0368 11.6701 27.7887 11.8066L27.3172 12.0175C27.2033 12.0782 27.0755 12.1711 26.965 12.2513C26.8949 12.3021 26.8319 12.3479 26.7838 12.3773C26.7635 12.3892 26.743 12.4012 26.7222 12.4133C26.6158 12.4754 26.505 12.5401 26.4116 12.6117C25.0333 11.5585 23.3598 10.9878 21.6353 11.0002ZM18.3409 19.9319C17.8322 19.9182 17.398 19.5101 17.3608 18.9878V18.8402C17.3236 17.1021 18.3768 15.5278 19.9784 14.9199C20.4871 14.745 21.0453 15.0191 21.2314 15.5402C21.4051 16.0612 21.1322 16.6319 20.6111 16.8168C19.8159 17.1145 19.2837 17.8973 19.2837 18.7645V18.8029C19.3073 19.087 19.2217 19.3612 19.048 19.5721C18.8743 19.783 18.6138 19.9058 18.3409 19.9319Z" fill="#D6ABD2"/>
<path fill-rule="evenodd" clip-rule="evenodd" d="M31.1822 11.0002C31.965 11.0002 32.7466 11.1106 33.4897 11.36C38.0687 12.8487 39.7187 17.8731 38.3404 22.2648C37.5588 24.509 36.281 26.5572 34.6075 28.2308C32.2119 30.5507 29.5831 32.6101 26.7533 34.3841L26.4431 34.5714L26.1206 34.3717C23.2809 32.6101 20.6372 30.5507 18.2193 28.2184C16.5569 26.5448 15.2778 24.509 14.4839 22.2648C13.082 17.8731 14.732 12.8487 19.3606 11.3339C19.7204 11.2099 20.0913 11.123 20.4635 11.0746H20.6124C20.961 11.0238 21.3071 11.0002 21.6545 11.0002H21.7909C22.5725 11.0238 23.3293 11.1602 24.0625 11.4096H24.1356C24.1853 11.4332 24.2225 11.4592 24.2473 11.4828C24.5215 11.5709 24.7808 11.6701 25.0289 11.8066L25.5003 12.0175C25.6142 12.0782 25.7421 12.1711 25.8526 12.2513C25.9226 12.3021 25.9856 12.3479 26.0338 12.3773C26.054 12.3892 26.0746 12.4012 26.0953 12.4133C26.2017 12.4754 26.3125 12.5401 26.4059 12.6117C27.7842 11.5585 29.4578 10.9878 31.1822 11.0002ZM34.4767 19.9319C34.9853 19.9182 35.4195 19.5101 35.4567 18.9878V18.8402C35.494 17.1021 34.4407 15.5278 32.8391 14.9199C32.3305 14.745 31.7722 15.0191 31.5861 15.5402C31.4124 16.0612 31.6853 16.6319 32.2064 16.8168C33.0016 17.1145 33.5338 17.8973 33.5338 18.7645V18.8029C33.5103 19.087 33.5959 19.3612 33.7695 19.5721C33.9432 19.783 34.2037 19.9058 34.4767 19.9319Z" fill="#D6ABD2"/>
</g>
<defs>
<filter id="filter0_d_65_844" x="0" y="0" width="52" height="52" filterUnits="userSpaceOnUse" color-interpolation-filters="sRGB">
<feFlood flood-opacity="0" result="BackgroundImageFix"/>
<feColorMatrix in="SourceAlpha" type="matrix" values="0 0 0 0 0 0 0 0 0 0 0 0 0 0 0 0 0 0 127 0" result="hardAlpha"/>
<feOffset dy="4"/>
<feGaussianBlur stdDeviation="2"/>
<feComposite in2="hardAlpha" operator="out"/>
<feColorMatrix type="matrix" values="0 0 0 0 0.94902 0 0 0 0 0.909804 0 0 0 0 0.960784 0 0 0 1 0"/>
<feBlend mode="normal" in2="BackgroundImageFix" result="effect1_dropShadow_65_844"/>
<feBlend mode="normal" in="SourceGraphic" in2="effect1_dropShadow_65_844" result="shape"/>
</filter>
</defs>
</svg>
