<svg width="109" height="60" viewBox="0 0 109 60" fill="none" xmlns="http://www.w3.org/2000/svg">
<rect x="0.0566406" y="0.59082" width="108.191" height="25.0638" rx="12.5319" fill="#4D5652"/>
<path d="M19.1364 9.62273H22.4124V10.4507H19.1364V9.62273ZM19.1364 13.0547H22.4124V13.8827H19.1364V13.0547ZM17.1444 8.03873C18.7164 8.03873 19.8444 9.51473 19.8444 11.8187C19.8444 14.1347 18.7164 15.6107 17.1444 15.6107C15.5604 15.6107 14.4444 14.1347 14.4444 11.8187C14.4444 9.51473 15.5604 8.03873 17.1444 8.03873ZM17.1444 8.93873C16.1004 8.93873 15.3804 10.0667 15.3804 11.8187C15.3804 13.5827 16.1004 14.7347 17.1444 14.7347C18.1884 14.7347 18.9084 13.5827 18.9084 11.8187C18.9084 10.0667 18.1884 8.93873 17.1444 8.93873ZM22.1964 7.19873H23.1804V18.0707H22.1964V7.19873ZM28.8075 7.99073C30.4995 7.99073 31.7115 9.03473 31.7115 10.5467C31.7115 12.0707 30.4995 13.1147 28.8075 13.1147C27.1155 13.1147 25.8915 12.0707 25.8915 10.5467C25.8915 9.03473 27.1155 7.99073 28.8075 7.99073ZM28.8075 8.85473C27.6795 8.85473 26.8635 9.53873 26.8635 10.5467C26.8635 11.5547 27.6795 12.2507 28.8075 12.2507C29.9235 12.2507 30.7395 11.5547 30.7395 10.5467C30.7395 9.53873 29.9235 8.85473 28.8075 8.85473ZM33.1275 7.19873H34.1235V18.0707H33.1275V7.19873ZM25.4835 15.6947L25.3395 14.8667C27.3195 14.8667 30.0555 14.8547 32.4195 14.4827L32.5035 15.2147C30.0675 15.6827 27.4155 15.6947 25.4835 15.6947ZM37.5665 12.2747H45.0185V13.0907H37.5665V12.2747ZM36.3305 15.8627H46.1585V16.7027H36.3305V15.8627ZM40.7225 12.6227H41.7185V16.1987H40.7225V12.6227ZM37.5665 8.07473H44.9105V8.89073H38.5625V12.6347H37.5665V8.07473ZM58.4174 7.19873H59.4134V18.0707H58.4174V7.19873ZM53.6894 8.03873C55.2974 8.03873 56.4494 9.51473 56.4494 11.8187C56.4494 14.1347 55.2974 15.6107 53.6894 15.6107C52.0934 15.6107 50.9414 14.1347 50.9414 11.8187C50.9414 9.51473 52.0934 8.03873 53.6894 8.03873ZM53.6894 8.93873C52.6334 8.93873 51.8894 10.0667 51.8894 11.8187C51.8894 13.5827 52.6334 14.7347 53.6894 14.7347C54.7574 14.7347 55.4894 13.5827 55.4894 11.8187C55.4894 10.0667 54.7574 8.93873 53.6894 8.93873ZM62.7484 8.31473H69.6364V9.13073H62.7484V8.31473ZM61.5844 15.7187H71.3884V16.5587H61.5844V15.7187ZM69.2044 8.31473H70.1764V9.64673C70.1764 11.2427 70.1764 12.7187 69.7204 14.9387L68.7364 14.8427C69.2044 12.7547 69.2044 11.2067 69.2044 9.64673V8.31473ZM69.4564 11.3147V12.0587L62.6044 12.4307L62.4604 11.6027L69.4564 11.3147ZM73.7875 7.64273H81.2515V10.4747H74.8195V12.3467H73.8115V9.70673H80.2555V8.44673H73.7875V7.64273ZM73.8115 11.8547H81.5035V12.6707H73.8115V11.8547ZM72.6115 13.7867H82.4515V14.6147H72.6115V13.7867ZM77.0155 14.0987H77.9995V18.0707H77.0155V14.0987ZM83.6625 15.7907H93.4905V16.6187H83.6625V15.7907ZM88.0545 8.67473H88.8945V9.57473C88.8945 11.7947 86.6745 13.4747 84.5385 13.9187L84.1305 13.1267C86.0025 12.8027 88.0545 11.2907 88.0545 9.57473V8.67473ZM88.2345 8.67473H89.0745V9.57473C89.0745 11.2907 91.1385 12.7787 93.0345 13.0787L92.6385 13.8827C90.4665 13.4507 88.2345 11.7947 88.2345 9.57473V8.67473ZM84.4665 8.27873H92.6625V9.10673H84.4665V8.27873Z" fill="white"/>
<rect x="0.0566406" y="32.4525" width="61.3191" height="27.1915" rx="13.5957" fill="#4D5652"/>
<path d="M20.4503 49.8249L15.9183 52.0908L17.0513 47.5589L13.6524 43.7823L18.562 43.4047L20.4503 39.2504L22.3386 43.4047L27.2481 43.7823L23.8492 47.5589L24.9822 52.0908L20.4503 49.8249Z" fill="#D8D138"/>
<path d="M20.4503 49.8249L15.9183 52.0908L17.0513 47.5589L13.6524 43.7823L18.562 43.4047L20.4503 39.2504L22.3386 43.4047L27.2481 43.7823L23.8492 47.5589L24.9822 52.0908L20.4503 49.8249Z" fill="#F8D675"/>
<path d="M34.4086 48.3941H38.0114V50.0483H39.0878V48.3941H40.3454V47.3631H39.0878V42.7066H37.5582L34.4086 47.1138V48.3941ZM38.0114 47.3631H35.4282L38.0114 43.7716V47.3631ZM41.3411 49.3232C41.3411 49.765 41.681 50.1049 42.1229 50.1049C42.5648 50.1049 42.916 49.765 42.916 49.3232C42.916 48.8813 42.5648 48.5301 42.1229 48.5301C41.681 48.5301 41.3411 48.8813 41.3411 49.3232ZM43.9354 48.0542C44.0374 49.2099 45.091 50.2295 46.6546 50.2295C48.286 50.2295 49.351 49.1079 49.351 47.7257C49.351 46.2075 48.2974 45.2898 46.8585 45.2898C46.2807 45.2898 45.6915 45.471 45.363 45.8336L45.9068 43.7262H49.0451V42.7066H45.1704L44.2186 46.3548C44.5925 46.4907 44.9211 46.638 45.3063 46.7853C45.6235 46.4567 46.1221 46.2528 46.6432 46.2528C47.493 46.2528 48.2294 46.7626 48.2294 47.771C48.2294 48.6774 47.5269 49.2552 46.6546 49.2552C45.7368 49.2552 45.0684 48.6434 45.0004 47.737L43.9354 48.0542Z" fill="white"/>
</svg>
