<svg width="114" height="16" viewBox="0 0 114 16" fill="none" xmlns="http://www.w3.org/2000/svg">
<path opacity="0.15" fill-rule="evenodd" clip-rule="evenodd" d="M8 14C10.9455 12.6667 13.3333 10.2789 13.3333 7.33333C13.3333 4.38781 10.9455 2 8 2C5.05449 2 2.66667 4.38781 2.66667 7.33333C2.66667 10.2789 5.05449 12.6667 8 14ZM8 9.33333C9.10457 9.33333 10 8.4379 10 7.33333C10 6.22876 9.10457 5.33333 8 5.33333C6.89544 5.33333 6 6.22876 6 7.33333C6 8.4379 6.89544 9.33333 8 9.33333Z" fill="url(#paint0_linear_65_675)"/>
<path d="M13.3333 7.33333C13.3333 10.2789 10.9455 12.6667 8 14C5.05449 12.6667 2.66667 10.2789 2.66667 7.33333C2.66667 4.38781 5.05449 2 8 2C10.9455 2 13.3333 4.38781 13.3333 7.33333Z" fill="url(#paint1_linear_65_675)"/>
<path d="M10 7.33333C10 8.4379 9.10457 9.33333 8 9.33333C6.89544 9.33333 6 8.4379 6 7.33333C6 6.22876 6.89544 5.33333 8 5.33333C9.10457 5.33333 10 6.22876 10 7.33333Z" fill="url(#paint2_linear_65_675)"/>
<circle cx="8" cy="8" r="2" fill="white"/>
<path d="M28.012 6.26H31.036V7.076H28.012V6.26ZM25.396 3.524H26.212V5.456C26.212 7.892 24.928 10.22 23.212 11.144L22.576 10.352C24.172 9.56 25.396 7.472 25.396 5.456V3.524ZM25.588 3.524H26.392V5.456C26.392 7.436 27.616 9.404 29.188 10.148L28.6 10.952C26.848 10.064 25.588 7.832 25.588 5.456V3.524ZM30.544 2.576H31.528V13.448H30.544V2.576ZM38.0311 7.688H39.0151V9.356H38.0311V7.688ZM38.5351 2.72C40.9231 2.72 42.3511 3.38 42.3511 4.592C42.3511 5.804 40.9231 6.476 38.5351 6.476C36.1351 6.476 34.7191 5.804 34.7191 4.592C34.7191 3.38 36.1351 2.72 38.5351 2.72ZM38.5351 3.476C36.7591 3.476 35.7391 3.884 35.7391 4.592C35.7391 5.312 36.7591 5.72 38.5351 5.72C40.2991 5.72 41.3191 5.312 41.3191 4.592C41.3191 3.884 40.2991 3.476 38.5351 3.476ZM33.6271 7.172H43.4311V7.988H33.6271V7.172ZM34.8151 8.984H42.1831V11.432H35.8231V12.752H34.8391V10.712H41.1991V9.752H34.8151V8.984ZM34.8391 12.536H42.5071V13.316H34.8391V12.536ZM52.7859 4.148H56.0979V4.964H52.7859V4.148ZM52.7859 6.644H56.0979V7.472H52.7859V6.644ZM50.8059 3.224C52.4019 3.224 53.6019 4.304 53.6019 5.804C53.6019 7.316 52.4019 8.384 50.8059 8.384C49.1979 8.384 48.0099 7.316 48.0099 5.804C48.0099 4.304 49.1979 3.224 50.8059 3.224ZM50.8059 4.076C49.7499 4.076 48.9699 4.784 48.9699 5.804C48.9699 6.824 49.7499 7.532 50.8059 7.532C51.8619 7.532 52.6539 6.824 52.6539 5.804C52.6539 4.784 51.8619 4.076 50.8059 4.076ZM55.7739 2.588H56.7699V9.008H55.7739V2.588ZM53.2059 9.26C55.4379 9.26 56.8179 10.028 56.8179 11.336C56.8179 12.656 55.4379 13.412 53.2059 13.412C50.9619 13.412 49.5819 12.656 49.5819 11.336C49.5819 10.028 50.9619 9.26 53.2059 9.26ZM53.2059 10.052C51.5619 10.052 50.5659 10.532 50.5659 11.336C50.5659 12.152 51.5619 12.632 53.2059 12.632C54.8379 12.632 55.8339 12.152 55.8339 11.336C55.8339 10.532 54.8379 10.052 53.2059 10.052ZM58.893 7.748H68.697V8.576H58.893V7.748ZM60.129 5.912H67.557V6.716H60.129V5.912ZM60.129 3.02H67.473V3.836H61.113V6.296H60.129V3.02ZM63.777 9.512C66.093 9.512 67.497 10.22 67.497 11.468C67.497 12.716 66.093 13.412 63.777 13.412C61.461 13.412 60.057 12.716 60.057 11.468C60.057 10.22 61.461 9.512 63.777 9.512ZM63.777 10.28C62.085 10.28 61.065 10.712 61.065 11.468C61.065 12.212 62.085 12.632 63.777 12.632C65.481 12.632 66.489 12.212 66.489 11.468C66.489 10.712 65.481 10.28 63.777 10.28ZM69.932 11.264H79.76V12.092H69.932V11.264ZM74.312 8.456H75.308V11.636H74.312V8.456ZM70.784 3.62H78.836V4.436H70.784V3.62ZM70.808 7.988H78.824V8.792H70.808V7.988ZM72.476 4.28H73.472V8.132H72.476V4.28ZM76.172 4.28H77.156V8.132H76.172V4.28ZM82.1951 3.296H88.9751V4.1H82.1951V3.296ZM80.9711 7.952H90.7751V8.768H80.9711V7.952ZM85.3511 8.492H86.3471V13.448H85.3511V8.492ZM88.5071 3.296H89.4791V4.232C89.4791 5.36 89.4791 6.632 89.0711 8.468L88.0871 8.336C88.5071 6.584 88.5071 5.324 88.5071 4.232V3.296Z" fill="black"/>
<path d="M100.98 5.3131C101.157 5.13559 101.435 5.11945 101.631 5.26469L101.687 5.3131L106 9.62599L110.313 5.3131C110.491 5.13559 110.768 5.11945 110.964 5.26469L111.02 5.3131C111.198 5.49061 111.214 5.76839 111.069 5.96413L111.02 6.02021L106.354 10.6869C106.176 10.8644 105.898 10.8805 105.703 10.7353L105.646 10.6869L100.98 6.02021C100.785 5.82495 100.785 5.50837 100.98 5.3131Z" fill="url(#paint3_linear_65_675)"/>
<defs>
<linearGradient id="paint0_linear_65_675" x1="13.1961" y1="10.6538" x2="2.27194" y2="10.523" gradientUnits="userSpaceOnUse">
<stop stop-color="#176FF2"/>
<stop offset="1" stop-color="#196EEE"/>
</linearGradient>
<linearGradient id="paint1_linear_65_675" x1="13.1961" y1="10.6538" x2="2.27194" y2="10.523" gradientUnits="userSpaceOnUse">
<stop stop-color="#176FF2"/>
<stop offset="1" stop-color="#196EEE"/>
</linearGradient>
<linearGradient id="paint2_linear_65_675" x1="13.1961" y1="10.6538" x2="2.27194" y2="10.523" gradientUnits="userSpaceOnUse">
<stop stop-color="#176FF2"/>
<stop offset="1" stop-color="#196EEE"/>
</linearGradient>
<linearGradient id="paint3_linear_65_675" x1="111.034" y1="9.25319" x2="100.456" y2="8.99334" gradientUnits="userSpaceOnUse">
<stop stop-color="#176FF2"/>
<stop offset="1" stop-color="#196EEE"/>
</linearGradient>
</defs>
</svg>
