<svg width="342" height="147" viewBox="0 0 342 147" fill="none" xmlns="http://www.w3.org/2000/svg">
<path d="M40.4223 70.68H44.4543V71.768H40.4223V70.68ZM36.9343 67.032H38.0223V69.608C38.0223 72.856 36.3103 75.96 34.0223 77.192L33.1743 76.136C35.3023 75.08 36.9343 72.296 36.9343 69.608V67.032ZM37.1903 67.032H38.2623V69.608C38.2623 72.248 39.8943 74.872 41.9903 75.864L41.2063 76.936C38.8703 75.752 37.1903 72.776 37.1903 69.608V67.032ZM43.7983 65.768H45.1103V80.264H43.7983V65.768ZM53.781 72.584H55.093V74.808H53.781V72.584ZM54.453 65.96C57.637 65.96 59.541 66.84 59.541 68.456C59.541 70.072 57.637 70.968 54.453 70.968C51.253 70.968 49.365 70.072 49.365 68.456C49.365 66.84 51.253 65.96 54.453 65.96ZM54.453 66.968C52.085 66.968 50.725 67.512 50.725 68.456C50.725 69.416 52.085 69.96 54.453 69.96C56.805 69.96 58.165 69.416 58.165 68.456C58.165 67.512 56.805 66.968 54.453 66.968ZM47.909 71.896H60.981V72.984H47.909V71.896ZM49.493 74.312H59.317V77.576H50.837V79.336H49.525V76.616H58.005V75.336H49.493V74.312ZM49.525 79.048H59.749V80.088H49.525V79.048ZM73.4541 67.864H77.8701V68.952H73.4541V67.864ZM73.4541 71.192H77.8701V72.296H73.4541V71.192ZM70.8141 66.632C72.9421 66.632 74.5421 68.072 74.5421 70.072C74.5421 72.088 72.9421 73.512 70.8141 73.512C68.6701 73.512 67.0861 72.088 67.0861 70.072C67.0861 68.072 68.6701 66.632 70.8141 66.632ZM70.8141 67.768C69.4061 67.768 68.3661 68.712 68.3661 70.072C68.3661 71.432 69.4061 72.376 70.8141 72.376C72.2221 72.376 73.2781 71.432 73.2781 70.072C73.2781 68.712 72.2221 67.768 70.8141 67.768ZM77.4381 65.784H78.7661V74.344H77.4381V65.784ZM74.0141 74.68C76.9901 74.68 78.8301 75.704 78.8301 77.448C78.8301 79.208 76.9901 80.216 74.0141 80.216C71.0221 80.216 69.1821 79.208 69.1821 77.448C69.1821 75.704 71.0221 74.68 74.0141 74.68ZM74.0141 75.736C71.8221 75.736 70.4941 76.376 70.4941 77.448C70.4941 78.536 71.8221 79.176 74.0141 79.176C76.1901 79.176 77.5181 78.536 77.5181 77.448C77.5181 76.376 76.1901 75.736 74.0141 75.736ZM81.5969 72.664H94.6689V73.768H81.5969V72.664ZM83.2449 70.216H93.1489V71.288H83.2449V70.216ZM83.2449 66.36H93.0369V67.448H84.5569V70.728H83.2449V66.36ZM88.1089 75.016C91.1969 75.016 93.0689 75.96 93.0689 77.624C93.0689 79.288 91.1969 80.216 88.1089 80.216C85.0209 80.216 83.1489 79.288 83.1489 77.624C83.1489 75.96 85.0209 75.016 88.1089 75.016ZM88.1089 76.04C85.8529 76.04 84.4929 76.616 84.4929 77.624C84.4929 78.616 85.8529 79.176 88.1089 79.176C90.3809 79.176 91.7249 78.616 91.7249 77.624C91.7249 76.616 90.3809 76.04 88.1089 76.04ZM96.3156 77.352H109.42V78.456H96.3156V77.352ZM102.156 73.608H103.484V77.848H102.156V73.608ZM97.4516 67.16H108.188V68.248H97.4516V67.16ZM97.4836 72.984H108.172V74.056H97.4836V72.984ZM99.7076 68.04H101.036V73.176H99.7076V68.04ZM104.636 68.04H105.948V73.176H104.636V68.04ZM112.666 66.728H121.706V67.8H112.666V66.728ZM111.034 72.936H124.106V74.024H111.034V72.936ZM116.874 73.656H118.202V80.264H116.874V73.656ZM121.082 66.728H122.378V67.976C122.378 69.48 122.378 71.176 121.834 73.624L120.522 73.448C121.082 71.112 121.082 69.432 121.082 67.976V66.728ZM131.588 72.344H141.604V73.432H131.588V72.344ZM129.988 77.288H143.092V78.392H129.988V77.288ZM135.86 73.016H137.172V77.64H135.86V73.016ZM131.588 67H132.916V72.824H131.588V67ZM155.714 65.784H156.994V80.248H155.714V65.784ZM153.058 66.088H154.306V79.528H153.058V66.088ZM151.058 70.68H153.634V71.752H151.058V70.68ZM150.946 73.992H153.538V75.064H150.946V73.992ZM144.674 68.264H151.794V69.336H144.674V68.264ZM148.21 70.328C149.97 70.328 151.25 71.688 151.25 73.672C151.25 75.64 149.97 77.016 148.21 77.016C146.466 77.016 145.186 75.64 145.186 73.672C145.186 71.688 146.466 70.328 148.21 70.328ZM148.21 71.448C147.138 71.448 146.354 72.36 146.354 73.672C146.354 74.968 147.138 75.88 148.21 75.88C149.298 75.88 150.066 74.968 150.066 73.672C150.066 72.36 149.298 71.448 148.21 71.448ZM147.57 66.152H148.882V68.872H147.57V66.152ZM159.425 77.368H172.529V78.472H159.425V77.368ZM165.281 74.264H166.609V77.832H165.281V74.264ZM161.009 66.856H170.913V71.24H162.369V74.136H161.057V70.168H169.601V67.928H161.009V66.856ZM161.057 73.576H171.249V74.664H161.057V73.576ZM178.224 79.192C177.52 79.192 176.917 79.0533 176.416 78.776C175.914 78.4987 175.514 78.1307 175.216 77.672C174.928 77.2027 174.752 76.6853 174.688 76.12H175.936C176.042 76.728 176.298 77.1973 176.704 77.528C177.109 77.8587 177.621 78.024 178.24 78.024C179.093 78.024 179.802 77.6293 180.368 76.84C180.933 76.04 181.237 74.7973 181.28 73.112C181.024 73.6133 180.613 74.0507 180.048 74.424C179.493 74.7867 178.821 74.968 178.032 74.968C177.402 74.968 176.805 74.8187 176.24 74.52C175.674 74.2213 175.216 73.8053 174.864 73.272C174.512 72.728 174.336 72.0933 174.336 71.368C174.336 70.7387 174.49 70.136 174.8 69.56C175.12 68.984 175.568 68.5147 176.144 68.152C176.72 67.7893 177.408 67.608 178.208 67.608C179.018 67.608 179.701 67.7627 180.256 68.072C180.81 68.3707 181.253 68.776 181.584 69.288C181.925 69.8 182.17 70.376 182.32 71.016C182.48 71.6453 182.56 72.2907 182.56 72.952C182.56 74.1893 182.389 75.2773 182.048 76.216C181.706 77.144 181.21 77.8747 180.56 78.408C179.92 78.9307 179.141 79.192 178.224 79.192ZM178.304 73.8C178.805 73.8 179.253 73.688 179.648 73.464C180.042 73.2293 180.357 72.92 180.592 72.536C180.826 72.152 180.944 71.736 180.944 71.288C180.944 70.808 180.826 70.3813 180.592 70.008C180.357 69.624 180.042 69.3253 179.648 69.112C179.253 68.8987 178.805 68.792 178.304 68.792C177.802 68.792 177.354 68.8987 176.96 69.112C176.565 69.3253 176.256 69.624 176.032 70.008C175.808 70.3813 175.696 70.8133 175.696 71.304C175.696 72.0613 175.941 72.6693 176.432 73.128C176.933 73.576 177.557 73.8 178.304 73.8ZM193.998 65.768H195.342V80.248H193.998V65.768ZM194.974 71.64H197.646V72.744H194.974V71.64ZM190.302 67.336H191.598C191.598 71.448 189.71 75.16 185.038 77.512L184.302 76.488C188.302 74.456 190.302 71.368 190.302 67.544V67.336ZM184.974 67.336H190.99V68.424H184.974V67.336ZM209.453 65.784H210.797V73.16H209.453V65.784ZM205.037 66.488H206.493C206.493 70.184 203.917 72.472 199.661 73.464L199.181 72.376C202.989 71.544 205.037 69.672 205.037 67.16V66.488ZM199.901 66.488H205.933V67.576H199.901V66.488ZM201.437 73.864H210.797V77.384H202.781V79.576H201.469V76.392H209.469V74.92H201.437V73.864ZM201.469 79.048H211.277V80.104H201.469V79.048ZM34.6943 100V90.304L32.8863 90.704V89.776L35.1423 88.8H36.0543V100H34.6943ZM39.5224 100V90.304L37.7144 90.704V89.776L39.9704 88.8H40.8824V100H39.5224ZM43.6305 100.08C43.3638 100.08 43.1398 99.9947 42.9585 99.824C42.7878 99.6427 42.7025 99.424 42.7025 99.168C42.7025 98.912 42.7878 98.6987 42.9585 98.528C43.1398 98.3467 43.3638 98.256 43.6305 98.256C43.8865 98.256 44.0998 98.3467 44.2705 98.528C44.4518 98.6987 44.5425 98.912 44.5425 99.168C44.5425 99.424 44.4518 99.6427 44.2705 99.824C44.0998 99.9947 43.8865 100.08 43.6305 100.08ZM43.6305 93.696C43.3638 93.696 43.1398 93.6107 42.9585 93.44C42.7878 93.2587 42.7025 93.04 42.7025 92.784C42.7025 92.528 42.7878 92.3147 42.9585 92.144C43.1398 91.9627 43.3638 91.872 43.6305 91.872C43.8865 91.872 44.0998 91.9627 44.2705 92.144C44.4518 92.3147 44.5425 92.528 44.5425 92.784C44.5425 93.04 44.4518 93.2587 44.2705 93.44C44.0998 93.6107 43.8865 93.696 43.6305 93.696ZM50.802 100.192C49.81 100.192 48.9513 99.952 48.226 99.472C47.5113 98.9813 46.962 98.304 46.578 97.44C46.194 96.5653 46.002 95.552 46.002 94.4C46.002 93.248 46.194 92.24 46.578 91.376C46.962 90.5013 47.5113 89.824 48.226 89.344C48.9513 88.8533 49.81 88.608 50.802 88.608C51.794 88.608 52.6473 88.8533 53.362 89.344C54.0767 89.824 54.626 90.5013 55.01 91.376C55.394 92.24 55.586 93.248 55.586 94.4C55.586 95.552 55.394 96.5653 55.01 97.44C54.626 98.304 54.0767 98.9813 53.362 99.472C52.6473 99.952 51.794 100.192 50.802 100.192ZM50.802 99.008C51.4527 99.008 52.034 98.8267 52.546 98.464C53.0687 98.0907 53.474 97.5627 53.762 96.88C54.0607 96.1867 54.21 95.36 54.21 94.4C54.21 93.44 54.0607 92.6187 53.762 91.936C53.474 91.2533 53.0687 90.7307 52.546 90.368C52.034 89.9947 51.4527 89.808 50.802 89.808C50.1407 89.808 49.554 89.9947 49.042 90.368C48.53 90.7307 48.1247 91.2533 47.826 91.936C47.5273 92.6187 47.378 93.44 47.378 94.4C47.378 95.36 47.5273 96.1867 47.826 96.88C48.1247 97.5627 48.53 98.0907 49.042 98.464C49.554 98.8267 50.1407 99.008 50.802 99.008ZM61.8958 100.192C60.9038 100.192 60.0451 99.952 59.3198 99.472C58.6051 98.9813 58.0558 98.304 57.6718 97.44C57.2878 96.5653 57.0958 95.552 57.0958 94.4C57.0958 93.248 57.2878 92.24 57.6718 91.376C58.0558 90.5013 58.6051 89.824 59.3198 89.344C60.0451 88.8533 60.9038 88.608 61.8958 88.608C62.8878 88.608 63.7411 88.8533 64.4558 89.344C65.1704 89.824 65.7198 90.5013 66.1038 91.376C66.4878 92.24 66.6798 93.248 66.6798 94.4C66.6798 95.552 66.4878 96.5653 66.1038 97.44C65.7198 98.304 65.1704 98.9813 64.4558 99.472C63.7411 99.952 62.8878 100.192 61.8958 100.192ZM61.8958 99.008C62.5464 99.008 63.1278 98.8267 63.6398 98.464C64.1624 98.0907 64.5677 97.5627 64.8558 96.88C65.1544 96.1867 65.3038 95.36 65.3038 94.4C65.3038 93.44 65.1544 92.6187 64.8558 91.936C64.5677 91.2533 64.1624 90.7307 63.6398 90.368C63.1278 89.9947 62.5464 89.808 61.8958 89.808C61.2344 89.808 60.6478 89.9947 60.1358 90.368C59.6238 90.7307 59.2184 91.2533 58.9198 91.936C58.6211 92.6187 58.4718 93.44 58.4718 94.4C58.4718 95.36 58.6211 96.1867 58.9198 96.88C59.2184 97.5627 59.6238 98.0907 60.1358 98.464C60.6478 98.8267 61.2344 99.008 61.8958 99.008ZM72.6159 95.92V94.784H78.9519V95.92H72.6159ZM86.3974 100V90.304L84.5894 90.704V89.776L86.8454 88.8H87.7574V100H86.3974ZM89.9455 100V99.056C90.7028 98.4587 91.4175 97.856 92.0895 97.248C92.7722 96.6293 93.3748 96.0213 93.8975 95.424C94.4308 94.8267 94.8468 94.24 95.1455 93.664C95.4548 93.088 95.6095 92.5333 95.6095 92C95.6095 91.6053 95.5402 91.2373 95.4015 90.896C95.2735 90.5547 95.0602 90.2827 94.7615 90.08C94.4628 89.8667 94.0575 89.76 93.5455 89.76C93.0548 89.76 92.6442 89.872 92.3135 90.096C91.9828 90.3093 91.7322 90.5973 91.5615 90.96C91.4015 91.3227 91.3215 91.712 91.3215 92.128H90.0255C90.0255 91.392 90.1802 90.7627 90.4895 90.24C90.7988 89.7067 91.2202 89.3013 91.7535 89.024C92.2868 88.7467 92.8895 88.608 93.5615 88.608C94.5535 88.608 95.3642 88.8907 95.9935 89.456C96.6335 90.0107 96.9535 90.8427 96.9535 91.952C96.9535 92.6133 96.7882 93.2693 96.4575 93.92C96.1268 94.56 95.7055 95.184 95.1935 95.792C94.6815 96.3893 94.1322 96.9493 93.5455 97.472C92.9695 97.9947 92.4308 98.464 91.9295 98.88H97.3375V100H89.9455ZM99.6618 100.08C99.3951 100.08 99.1711 99.9947 98.9898 99.824C98.8191 99.6427 98.7338 99.424 98.7338 99.168C98.7338 98.912 98.8191 98.6987 98.9898 98.528C99.1711 98.3467 99.3951 98.256 99.6618 98.256C99.9178 98.256 100.131 98.3467 100.302 98.528C100.483 98.6987 100.574 98.912 100.574 99.168C100.574 99.424 100.483 99.6427 100.302 99.824C100.131 99.9947 99.9178 100.08 99.6618 100.08ZM99.6618 93.696C99.3951 93.696 99.1711 93.6107 98.9898 93.44C98.8191 93.2587 98.7338 93.04 98.7338 92.784C98.7338 92.528 98.8191 92.3147 98.9898 92.144C99.1711 91.9627 99.3951 91.872 99.6618 91.872C99.9178 91.872 100.131 91.9627 100.302 92.144C100.483 92.3147 100.574 92.528 100.574 92.784C100.574 93.04 100.483 93.2587 100.302 93.44C100.131 93.6107 99.9178 93.696 99.6618 93.696ZM106.833 100.192C105.841 100.192 104.983 99.952 104.257 99.472C103.543 98.9813 102.993 98.304 102.609 97.44C102.225 96.5653 102.033 95.552 102.033 94.4C102.033 93.248 102.225 92.24 102.609 91.376C102.993 90.5013 103.543 89.824 104.257 89.344C104.983 88.8533 105.841 88.608 106.833 88.608C107.825 88.608 108.679 88.8533 109.393 89.344C110.108 89.824 110.657 90.5013 111.041 91.376C111.425 92.24 111.617 93.248 111.617 94.4C111.617 95.552 111.425 96.5653 111.041 97.44C110.657 98.304 110.108 98.9813 109.393 99.472C108.679 99.952 107.825 100.192 106.833 100.192ZM106.833 99.008C107.484 99.008 108.065 98.8267 108.577 98.464C109.1 98.0907 109.505 97.5627 109.793 96.88C110.092 96.1867 110.241 95.36 110.241 94.4C110.241 93.44 110.092 92.6187 109.793 91.936C109.505 91.2533 109.1 90.7307 108.577 90.368C108.065 89.9947 107.484 89.808 106.833 89.808C106.172 89.808 105.585 89.9947 105.073 90.368C104.561 90.7307 104.156 91.2533 103.857 91.936C103.559 92.6187 103.409 93.44 103.409 94.4C103.409 95.36 103.559 96.1867 103.857 96.88C104.156 97.5627 104.561 98.0907 105.073 98.464C105.585 98.8267 106.172 99.008 106.833 99.008ZM117.927 100.192C116.935 100.192 116.076 99.952 115.351 99.472C114.636 98.9813 114.087 98.304 113.703 97.44C113.319 96.5653 113.127 95.552 113.127 94.4C113.127 93.248 113.319 92.24 113.703 91.376C114.087 90.5013 114.636 89.824 115.351 89.344C116.076 88.8533 116.935 88.608 117.927 88.608C118.919 88.608 119.772 88.8533 120.487 89.344C121.202 89.824 121.751 90.5013 122.135 91.376C122.519 92.24 122.711 93.248 122.711 94.4C122.711 95.552 122.519 96.5653 122.135 97.44C121.751 98.304 121.202 98.9813 120.487 99.472C119.772 99.952 118.919 100.192 117.927 100.192ZM117.927 99.008C118.578 99.008 119.159 98.8267 119.671 98.464C120.194 98.0907 120.599 97.5627 120.887 96.88C121.186 96.1867 121.335 95.36 121.335 94.4C121.335 93.44 121.186 92.6187 120.887 91.936C120.599 91.2533 120.194 90.7307 119.671 90.368C119.159 89.9947 118.578 89.808 117.927 89.808C117.266 89.808 116.679 89.9947 116.167 90.368C115.655 90.7307 115.25 91.2533 114.951 91.936C114.652 92.6187 114.503 93.44 114.503 94.4C114.503 95.36 114.652 96.1867 114.951 96.88C115.25 97.5627 115.655 98.0907 116.167 98.464C116.679 98.8267 117.266 99.008 117.927 99.008ZM128.183 100L132.311 88.8H133.735L137.847 100H136.423L135.399 97.12H130.631L129.591 100H128.183ZM131.031 96.032H134.999L133.015 90.496L131.031 96.032ZM139.512 100V88.8H141.08L145.112 96.608L149.112 88.8H150.696V100H149.352V91.2L145.608 98.4H144.6L140.856 91.216V100H139.512ZM37.9583 121.192C36.9663 121.192 36.1076 120.952 35.3823 120.472C34.6676 119.981 34.1183 119.304 33.7343 118.44C33.3503 117.565 33.1583 116.552 33.1583 115.4C33.1583 114.248 33.3503 113.24 33.7343 112.376C34.1183 111.501 34.6676 110.824 35.3823 110.344C36.1076 109.853 36.9663 109.608 37.9583 109.608C38.9503 109.608 39.8036 109.853 40.5183 110.344C41.2329 110.824 41.7823 111.501 42.1663 112.376C42.5503 113.24 42.7423 114.248 42.7423 115.4C42.7423 116.552 42.5503 117.565 42.1663 118.44C41.7823 119.304 41.2329 119.981 40.5183 120.472C39.8036 120.952 38.9503 121.192 37.9583 121.192ZM37.9583 120.008C38.6089 120.008 39.1903 119.827 39.7023 119.464C40.2249 119.091 40.6302 118.563 40.9183 117.88C41.2169 117.187 41.3663 116.36 41.3663 115.4C41.3663 114.44 41.2169 113.619 40.9183 112.936C40.6302 112.253 40.2249 111.731 39.7023 111.368C39.1903 110.995 38.6089 110.808 37.9583 110.808C37.2969 110.808 36.7103 110.995 36.1983 111.368C35.6863 111.731 35.2809 112.253 34.9823 112.936C34.6836 113.619 34.5343 114.44 34.5343 115.4C34.5343 116.36 34.6836 117.187 34.9823 117.88C35.2809 118.563 35.6863 119.091 36.1983 119.464C36.7103 119.827 37.2969 120.008 37.9583 120.008ZM44.3518 121V120.056C45.1091 119.459 45.8238 118.856 46.4958 118.248C47.1784 117.629 47.7811 117.021 48.3038 116.424C48.8371 115.827 49.2531 115.24 49.5518 114.664C49.8611 114.088 50.0158 113.533 50.0158 113C50.0158 112.605 49.9464 112.237 49.8078 111.896C49.6798 111.555 49.4664 111.283 49.1678 111.08C48.8691 110.867 48.4638 110.76 47.9518 110.76C47.4611 110.76 47.0504 110.872 46.7198 111.096C46.3891 111.309 46.1384 111.597 45.9678 111.96C45.8078 112.323 45.7278 112.712 45.7278 113.128H44.4318C44.4318 112.392 44.5864 111.763 44.8958 111.24C45.2051 110.707 45.6264 110.301 46.1598 110.024C46.6931 109.747 47.2958 109.608 47.9678 109.608C48.9598 109.608 49.7704 109.891 50.3998 110.456C51.0398 111.011 51.3598 111.843 51.3598 112.952C51.3598 113.613 51.1944 114.269 50.8638 114.92C50.5331 115.56 50.1118 116.184 49.5998 116.792C49.0878 117.389 48.5384 117.949 47.9518 118.472C47.3758 118.995 46.8371 119.464 46.3358 119.88H51.7438V121H44.3518ZM53.444 116.92V115.784H59.78V116.92H53.444ZM65.3751 121.192C64.6605 121.192 64.0151 121.064 63.4391 120.808C62.8631 120.541 62.3991 120.147 62.0471 119.624C61.7058 119.101 61.5245 118.451 61.5031 117.672H62.8631C62.8738 118.312 63.0978 118.867 63.5351 119.336C63.9725 119.795 64.5858 120.024 65.3751 120.024C66.1645 120.024 66.7565 119.805 67.1511 119.368C67.5565 118.931 67.7591 118.403 67.7591 117.784C67.7591 117.261 67.6311 116.835 67.3751 116.504C67.1298 116.173 66.7938 115.928 66.3671 115.768C65.9511 115.608 65.4925 115.528 64.9911 115.528H64.1591V114.392H64.9911C65.7165 114.392 66.2818 114.227 66.6871 113.896C67.1031 113.565 67.3111 113.101 67.3111 112.504C67.3111 112.003 67.1458 111.592 66.8151 111.272C66.4951 110.941 66.0151 110.776 65.3751 110.776C64.7565 110.776 64.2605 110.963 63.8871 111.336C63.5138 111.699 63.3058 112.157 63.2631 112.712H61.9031C61.9351 112.104 62.0951 111.565 62.3831 111.096C62.6818 110.627 63.0871 110.264 63.5991 110.008C64.1111 109.741 64.7031 109.608 65.3751 109.608C66.1005 109.608 66.7031 109.736 67.1831 109.992C67.6738 110.248 68.0418 110.589 68.2871 111.016C68.5431 111.443 68.6711 111.912 68.6711 112.424C68.6711 112.989 68.5165 113.507 68.2071 113.976C67.8978 114.435 67.4338 114.744 66.8151 114.904C67.4765 115.043 68.0258 115.357 68.4631 115.848C68.9005 116.339 69.1191 116.984 69.1191 117.784C69.1191 118.403 68.9751 118.973 68.6871 119.496C68.4098 120.008 67.9938 120.419 67.4391 120.728C66.8845 121.037 66.1965 121.192 65.3751 121.192ZM74.7814 121.192C74.0667 121.192 73.4214 121.064 72.8454 120.808C72.2694 120.541 71.8054 120.147 71.4534 119.624C71.112 119.101 70.9307 118.451 70.9094 117.672H72.2694C72.28 118.312 72.504 118.867 72.9414 119.336C73.3787 119.795 73.992 120.024 74.7814 120.024C75.5707 120.024 76.1627 119.805 76.5574 119.368C76.9627 118.931 77.1654 118.403 77.1654 117.784C77.1654 117.261 77.0374 116.835 76.7814 116.504C76.536 116.173 76.2 115.928 75.7734 115.768C75.3574 115.608 74.8987 115.528 74.3974 115.528H73.5654V114.392H74.3974C75.1227 114.392 75.688 114.227 76.0934 113.896C76.5094 113.565 76.7174 113.101 76.7174 112.504C76.7174 112.003 76.552 111.592 76.2214 111.272C75.9014 110.941 75.4214 110.776 74.7814 110.776C74.1627 110.776 73.6667 110.963 73.2934 111.336C72.92 111.699 72.712 112.157 72.6694 112.712H71.3094C71.3414 112.104 71.5014 111.565 71.7894 111.096C72.088 110.627 72.4934 110.264 73.0054 110.008C73.5174 109.741 74.1094 109.608 74.7814 109.608C75.5067 109.608 76.1094 109.736 76.5894 109.992C77.08 110.248 77.448 110.589 77.6934 111.016C77.9494 111.443 78.0774 111.912 78.0774 112.424C78.0774 112.989 77.9227 113.507 77.6134 113.976C77.304 114.435 76.84 114.744 76.2214 114.904C76.8827 115.043 77.432 115.357 77.8694 115.848C78.3067 116.339 78.5254 116.984 78.5254 117.784C78.5254 118.403 78.3814 118.973 78.0934 119.496C77.816 120.008 77.4 120.419 76.8454 120.728C76.2907 121.037 75.6027 121.192 74.7814 121.192ZM81.538 121V111.304L79.73 111.704V110.776L81.986 109.8H82.898V121H81.538ZM85.0221 116.92V115.784H91.3581V116.92H85.0221ZM96.9533 121.192C96.2386 121.192 95.5933 121.064 95.0173 120.808C94.4413 120.541 93.9773 120.147 93.6253 119.624C93.2839 119.101 93.1026 118.451 93.0813 117.672H94.4413C94.4519 118.312 94.6759 118.867 95.1133 119.336C95.5506 119.795 96.1639 120.024 96.9533 120.024C97.7426 120.024 98.3346 119.805 98.7293 119.368C99.1346 118.931 99.3373 118.403 99.3373 117.784C99.3373 117.261 99.2093 116.835 98.9533 116.504C98.7079 116.173 98.3719 115.928 97.9453 115.768C97.5293 115.608 97.0706 115.528 96.5693 115.528H95.7373V114.392H96.5693C97.2946 114.392 97.8599 114.227 98.2653 113.896C98.6813 113.565 98.8893 113.101 98.8893 112.504C98.8893 112.003 98.7239 111.592 98.3933 111.272C98.0733 110.941 97.5933 110.776 96.9533 110.776C96.3346 110.776 95.8386 110.963 95.4653 111.336C95.0919 111.699 94.8839 112.157 94.8413 112.712H93.4813C93.5133 112.104 93.6733 111.565 93.9613 111.096C94.2599 110.627 94.6653 110.264 95.1773 110.008C95.6893 109.741 96.2813 109.608 96.9533 109.608C97.6786 109.608 98.2813 109.736 98.7613 109.992C99.2519 110.248 99.6199 110.589 99.8653 111.016C100.121 111.443 100.249 111.912 100.249 112.424C100.249 112.989 100.095 113.507 99.7853 113.976C99.4759 114.435 99.0119 114.744 98.3933 114.904C99.0546 115.043 99.6039 115.357 100.041 115.848C100.479 116.339 100.697 116.984 100.697 117.784C100.697 118.403 100.553 118.973 100.265 119.496C99.9879 120.008 99.5719 120.419 99.0173 120.728C98.4626 121.037 97.7746 121.192 96.9533 121.192ZM106.68 121.192C105.912 121.192 105.245 121.053 104.68 120.776C104.114 120.499 103.661 120.12 103.32 119.64C102.989 119.149 102.786 118.595 102.712 117.976H104.024C104.152 118.595 104.45 119.096 104.92 119.48C105.389 119.853 105.981 120.04 106.696 120.04C107.229 120.04 107.688 119.917 108.072 119.672C108.456 119.416 108.749 119.075 108.952 118.648C109.165 118.221 109.272 117.747 109.272 117.224C109.272 116.392 109.037 115.72 108.568 115.208C108.098 114.696 107.49 114.44 106.744 114.44C106.125 114.44 105.597 114.579 105.16 114.856C104.722 115.133 104.402 115.496 104.2 115.944H102.92L103.88 109.8H109.752V110.968H104.92L104.264 114.376C104.52 114.067 104.872 113.811 105.32 113.608C105.778 113.405 106.301 113.304 106.888 113.304C107.624 113.304 108.264 113.475 108.808 113.816C109.362 114.157 109.794 114.621 110.104 115.208C110.413 115.795 110.568 116.461 110.568 117.208C110.568 117.923 110.413 118.584 110.104 119.192C109.805 119.8 109.362 120.285 108.776 120.648C108.2 121.011 107.501 121.192 106.68 121.192ZM116.7 121.192C115.89 121.192 115.207 121.043 114.652 120.744C114.098 120.435 113.65 120.024 113.308 119.512C112.978 119 112.732 118.429 112.572 117.8C112.423 117.16 112.348 116.509 112.348 115.848C112.348 114.611 112.519 113.528 112.86 112.6C113.202 111.661 113.692 110.931 114.332 110.408C114.983 109.875 115.767 109.608 116.684 109.608C117.388 109.608 117.991 109.747 118.492 110.024C118.994 110.301 119.388 110.675 119.676 111.144C119.975 111.603 120.162 112.115 120.236 112.68H118.988C118.871 112.072 118.61 111.603 118.204 111.272C117.799 110.941 117.287 110.776 116.668 110.776C115.826 110.776 115.116 111.176 114.54 111.976C113.975 112.765 113.671 114.003 113.628 115.688C113.884 115.187 114.29 114.755 114.844 114.392C115.41 114.019 116.087 113.832 116.876 113.832C117.516 113.832 118.114 113.981 118.668 114.28C119.234 114.579 119.692 115 120.044 115.544C120.396 116.077 120.572 116.707 120.572 117.432C120.572 118.061 120.418 118.664 120.108 119.24C119.799 119.816 119.351 120.285 118.764 120.648C118.188 121.011 117.5 121.192 116.7 121.192ZM116.604 120.008C117.106 120.008 117.554 119.901 117.948 119.688C118.343 119.475 118.652 119.181 118.876 118.808C119.1 118.424 119.212 117.987 119.212 117.496C119.212 116.739 118.962 116.136 118.46 115.688C117.97 115.229 117.351 115 116.604 115C116.103 115 115.655 115.117 115.26 115.352C114.866 115.576 114.551 115.88 114.316 116.264C114.092 116.648 113.98 117.064 113.98 117.512C113.98 117.992 114.092 118.424 114.316 118.808C114.551 119.181 114.866 119.475 115.26 119.688C115.655 119.901 116.103 120.008 116.604 120.008ZM123.253 121L127.701 110.952H121.557V109.8H129.077V110.808L124.677 121H123.253ZM43.7183 128.8H45.0623V139.36H43.7183V128.8ZM35.7663 141.84H45.4943V142.928H35.7663V141.84ZM35.7663 138.272H37.0783V142.208H35.7663V138.272ZM37.3023 129.792C39.4623 129.792 41.0623 131.264 41.0623 133.36C41.0623 135.44 39.4623 136.928 37.3023 136.928C35.1423 136.928 33.5263 135.44 33.5263 133.36C33.5263 131.264 35.1423 129.792 37.3023 129.792ZM37.3023 130.944C35.8943 130.944 34.8223 131.936 34.8223 133.36C34.8223 134.768 35.8943 135.76 37.3023 135.76C38.7103 135.76 39.7823 134.768 39.7823 133.36C39.7823 131.936 38.7103 130.944 37.3023 130.944ZM53.717 129.776H54.869V130.88C54.869 134.032 51.941 136.48 49.045 137.136L48.453 136.032C50.997 135.552 53.717 133.344 53.717 130.88V129.776ZM53.957 129.776H55.109V130.88C55.109 133.36 57.845 135.552 60.373 136.032L59.781 137.136C56.901 136.48 53.957 134.048 53.957 130.88V129.776ZM47.925 140.208H61.029V141.296H47.925V140.208ZM63.2518 138.672H64.3878C67.0598 138.672 68.8998 138.608 71.0758 138.224L71.2198 139.312C68.9798 139.696 67.0918 139.776 64.3878 139.776H63.2518V138.672ZM63.2518 130.096H69.9878V131.2H64.5798V139.056H63.2518V130.096ZM64.2438 134.144H69.6678V135.216H64.2438V134.144ZM72.4198 128.784H73.7638V143.248H72.4198V128.784ZM73.4438 134.592H76.1318V135.712H73.4438V134.592ZM87.3889 130.208H88.5409V130.816C88.5409 133.408 85.7889 135.312 82.8769 135.808L82.3649 134.752C84.9089 134.384 87.3889 132.72 87.3889 130.816V130.208ZM87.7249 130.208H88.8609V130.816C88.8609 132.72 91.3569 134.384 93.8849 134.752L93.3889 135.808C90.4609 135.312 87.7249 133.408 87.7249 130.816V130.208ZM87.4369 137.728H88.7489V143.248H87.4369V137.728ZM81.5969 137.024H94.6689V138.112H81.5969V137.024ZM82.8129 129.68H93.4049V130.752H82.8129V129.68ZM96.3156 140.272H109.42V141.376H96.3156V140.272ZM102.14 136.768H103.452V140.64H102.14V136.768ZM102.108 129.744H103.26V130.864C103.26 133.952 100.3 136.336 97.3876 136.944L96.8276 135.84C99.3716 135.376 102.108 133.248 102.108 130.864V129.744ZM102.348 129.744H103.5V130.864C103.5 133.264 106.252 135.376 108.796 135.84L108.22 136.944C105.308 136.336 102.348 133.952 102.348 130.864V129.744ZM115.941 130.016H127.573V131.056H115.941V130.016ZM121.797 131.648C124.773 131.648 126.469 132.368 126.469 133.744C126.469 135.12 124.773 135.84 121.797 135.84C118.821 135.84 117.125 135.12 117.125 133.744C117.125 132.368 118.821 131.648 121.797 131.648ZM121.797 132.576C119.669 132.576 118.485 132.992 118.485 133.744C118.485 134.48 119.669 134.88 121.797 134.88C123.925 134.88 125.109 134.48 125.109 133.744C125.109 132.992 123.925 132.576 121.797 132.576ZM121.141 128.56H122.453V130.64H121.141V128.56ZM115.253 136.992H128.325V138.064H115.253V136.992ZM121.141 135.472H122.453V137.488H121.141V135.472ZM116.677 139.216H126.597V143.248H125.285V140.256H116.677V139.216ZM129.972 136.384H143.044V137.472H129.972V136.384ZM131.668 141.84H141.604V142.928H131.668V141.84ZM131.668 138.736H132.996V142.176H131.668V138.736ZM136.516 129.264C139.604 129.264 141.604 130.352 141.604 132.16C141.604 133.952 139.604 135.04 136.516 135.04C133.411 135.04 131.428 133.952 131.428 132.16C131.428 130.352 133.411 129.264 136.516 129.264ZM136.516 130.352C134.244 130.352 132.788 131.024 132.788 132.16C132.788 133.296 134.244 133.968 136.516 133.968C138.788 133.968 140.244 133.296 140.244 132.16C140.244 131.024 138.788 130.352 136.516 130.352ZM150.669 129.04H151.981V130.384H158.973V129.04H160.301V133.808H150.669V129.04ZM151.981 131.408V132.784H158.973V131.408H151.981ZM148.925 135.024H161.997V136.096H148.925V135.024ZM150.509 137.408H160.333V140.64H151.853V142.416H150.541V139.68H159.021V138.416H150.509V137.408ZM150.541 142.064H160.765V143.088H150.541V142.064ZM163.659 140.368H176.763V141.472H163.659V140.368ZM169.515 137.264H170.843V140.832H169.515V137.264ZM165.243 129.856H175.147V134.24H166.603V137.136H165.291V133.168H173.835V130.928H165.243V129.856ZM165.291 136.576H175.483V137.664H165.291V136.576ZM179.786 130.32H189.098V131.392H179.786V130.32ZM178.378 140.032H191.45V141.136H178.378V140.032ZM188.394 130.32H189.69V131.76C189.69 133.616 189.69 135.68 189.146 138.8L187.818 138.672C188.394 135.712 188.394 133.552 188.394 131.76V130.32Z" fill="#3A544F"/>
<path d="M18.0035 46.3331L14.0035 48.3331L15.0035 44.3331L12.0035 40.9998L16.3368 40.6664L18.0035 36.9998L19.6702 40.6664L24.0035 40.9998L21.0035 44.3331L22.0035 48.3331L18.0035 46.3331Z" fill="#D8D138"/>
<path d="M18.0035 46.3331L14.0035 48.3331L15.0035 44.3331L12.0035 40.9998L16.3368 40.6664L18.0035 36.9998L19.6702 40.6664L24.0035 40.9998L21.0035 44.3331L22.0035 48.3331L18.0035 46.3331Z" fill="url(#paint0_linear_65_854)"/>
<path d="M30.372 47.188H34.2V49H35.184V47.188H36.54V46.276H35.184V41.224H33.804L30.372 46.036V47.188ZM34.2 46.276H31.296L34.2 42.196V46.276ZM37.6338 48.316C37.6338 48.736 37.9698 49.06 38.3778 49.06C38.7858 49.06 39.1218 48.736 39.1218 48.316C39.1218 47.896 38.7858 47.572 38.3778 47.572C37.9698 47.572 37.6338 47.896 37.6338 48.316ZM40.252 46.864C40.36 48.1 41.464 49.168 43.072 49.168C44.776 49.168 45.892 48.004 45.892 46.552C45.892 44.98 44.788 43.972 43.264 43.972C42.652 43.972 41.992 44.176 41.596 44.608L42.22 42.136H45.58V41.224H41.56L40.552 45.112L41.536 45.496C41.92 45.076 42.484 44.848 43.072 44.848C44.068 44.848 44.884 45.472 44.884 46.588C44.884 47.608 44.092 48.292 43.072 48.292C42.04 48.292 41.284 47.584 41.212 46.588L40.252 46.864ZM50.1112 45.196C50.1112 47.788 51.0952 49.588 52.3672 50.896L52.9552 50.38C51.7312 49.012 50.9512 47.368 50.9512 45.196C50.9512 43.024 51.7312 41.38 52.9552 40.012L52.3672 39.496C51.0952 40.816 50.1112 42.604 50.1112 45.196ZM55.9285 45.256C56.1445 45.184 56.3845 45.148 56.6365 45.148C57.5005 45.148 58.3405 45.64 58.3405 46.696C58.3405 47.584 57.6565 48.28 56.5525 48.28C55.5565 48.28 54.7285 47.608 54.6805 46.516L53.6965 46.744C53.7685 48.04 54.8365 49.168 56.5645 49.168C58.3165 49.168 59.3485 48.004 59.3485 46.684C59.3485 45.148 58.1485 44.332 57.0325 44.332C56.9605 44.332 56.8645 44.344 56.8045 44.356L59.1685 42.124V41.224H53.9365V42.136H57.8485L55.4365 44.428L55.9285 45.256ZM60.4083 46.864C60.5163 48.1 61.6203 49.168 63.2283 49.168C64.9323 49.168 66.0483 48.004 66.0483 46.552C66.0483 44.98 64.9443 43.972 63.4203 43.972C62.8083 43.972 62.1483 44.176 61.7523 44.608L62.3763 42.136H65.7363V41.224H61.7163L60.7083 45.112L61.6923 45.496C62.0763 45.076 62.6403 44.848 63.2283 44.848C64.2243 44.848 65.0403 45.472 65.0403 46.588C65.0403 47.608 64.2483 48.292 63.2283 48.292C62.1963 48.292 61.4403 47.584 61.3683 46.588L60.4083 46.864ZM67.0528 46.864C67.1608 48.1 68.2648 49.168 69.8728 49.168C71.5768 49.168 72.6928 48.004 72.6928 46.552C72.6928 44.98 71.5888 43.972 70.0648 43.972C69.4528 43.972 68.7928 44.176 68.3968 44.608L69.0208 42.136H72.3808V41.224H68.3608L67.3528 45.112L68.3368 45.496C68.7208 45.076 69.2848 44.848 69.8728 44.848C70.8688 44.848 71.6848 45.472 71.6848 46.588C71.6848 47.608 70.8928 48.292 69.8728 48.292C68.8408 48.292 68.0848 47.584 68.0128 46.588L67.0528 46.864ZM81.9879 49H83.1639L81.0999 45.364C82.3839 45.16 83.1759 44.212 83.1759 42.976C83.1759 41.596 82.1799 40.492 80.6079 40.492H77.5119V49H78.5199V45.436H79.9959L81.9879 49ZM78.5199 44.536V41.392H80.4519C81.4839 41.392 82.1679 42.016 82.1679 42.976C82.1679 43.924 81.4839 44.536 80.4519 44.536H78.5199ZM85.0207 45.568C85.0807 44.716 85.7527 43.936 86.7487 43.936C87.8407 43.936 88.4287 44.656 88.4527 45.568H85.0207ZM88.5847 47.068C88.3567 47.752 87.8287 48.304 86.8567 48.304C85.8247 48.304 84.9967 47.524 84.9967 46.432V46.384H89.4247C89.4367 46.3 89.4487 46.168 89.4487 46.048C89.4487 44.296 88.4767 43.084 86.7367 43.084C85.2847 43.084 84.0127 44.296 84.0127 46.108C84.0127 48.04 85.3207 49.168 86.8567 49.168C88.1887 49.168 89.0887 48.364 89.4127 47.368L88.5847 47.068ZM95.6336 43.252H94.6016L92.8616 47.884L91.1336 43.252H90.0536L92.3696 49H93.3416L95.6336 43.252ZM97.8257 49V43.252H96.8657V49H97.8257ZM96.6257 40.984C96.6257 41.38 96.9497 41.704 97.3457 41.704C97.7417 41.704 98.0657 41.38 98.0657 40.984C98.0657 40.588 97.7417 40.264 97.3457 40.264C96.9497 40.264 96.6257 40.588 96.6257 40.984ZM100.314 45.568C100.374 44.716 101.046 43.936 102.042 43.936C103.134 43.936 103.722 44.656 103.746 45.568H100.314ZM103.878 47.068C103.65 47.752 103.122 48.304 102.15 48.304C101.118 48.304 100.29 47.524 100.29 46.432V46.384H104.718C104.73 46.3 104.742 46.168 104.742 46.048C104.742 44.296 103.77 43.084 102.03 43.084C100.578 43.084 99.3056 44.296 99.3056 46.108C99.3056 48.04 100.614 49.168 102.15 49.168C103.482 49.168 104.382 48.364 104.706 47.368L103.878 47.068ZM109.473 43.252L107.889 47.8L106.485 43.252H105.453L107.361 49H108.381L109.965 44.416L111.573 49H112.581L114.453 43.252H113.433L112.065 47.8L110.469 43.252H109.473ZM115.148 47.488C115.244 48.208 115.928 49.168 117.44 49.168C118.808 49.168 119.516 48.256 119.516 47.428C119.516 46.576 118.964 45.988 117.956 45.76L117.02 45.544C116.516 45.424 116.264 45.172 116.264 44.764C116.264 44.284 116.732 43.9 117.332 43.9C118.244 43.9 118.544 44.536 118.616 44.932L119.468 44.62C119.336 44.032 118.82 43.084 117.332 43.084C116.24 43.084 115.328 43.864 115.328 44.824C115.328 45.652 115.88 46.216 116.756 46.42L117.692 46.636C118.22 46.756 118.568 47.044 118.568 47.476C118.568 47.968 118.136 48.352 117.452 48.352C116.588 48.352 116.096 47.848 116.012 47.188L115.148 47.488ZM122.708 45.196C122.708 42.604 121.724 40.816 120.452 39.496L119.864 40.012C121.088 41.38 121.868 43.024 121.868 45.196C121.868 47.368 121.088 49.012 119.864 50.38L120.452 50.896C121.724 49.588 122.708 47.788 122.708 45.196Z" fill="#606060"/>
<path d="M18.35 7.8H24.65V10.475H18.35V7.8ZM18.35 14.975H24.65V17.65H18.35V14.975ZM14.35 4.675C17.8 4.675 20.325 7.875 20.325 12.925C20.325 18.025 17.8 21.225 14.35 21.225C10.875 21.225 8.375 18.025 8.375 12.925C8.375 7.875 10.875 4.675 14.35 4.675ZM14.35 7.7C12.675 7.7 11.525 9.525 11.525 12.925C11.525 16.375 12.675 18.225 14.35 18.225C16.05 18.225 17.175 16.375 17.175 12.925C17.175 9.525 16.05 7.7 14.35 7.7ZM24.125 3.05H27.425V26.275H24.125V3.05ZM38.448 4.6C42.098 4.6 44.823 6.975 44.823 10.3C44.823 13.65 42.098 16.025 38.448 16.025C34.823 16.025 32.048 13.65 32.048 10.3C32.048 6.975 34.823 4.6 38.448 4.6ZM38.448 7.45C36.673 7.45 35.323 8.5 35.323 10.3C35.323 12.125 36.673 13.175 38.448 13.175C40.223 13.175 41.573 12.125 41.573 10.3C41.573 8.5 40.223 7.45 38.448 7.45ZM46.998 3.05H50.323V26.275H46.998V3.05ZM31.498 21.575L31.098 18.9C35.173 18.9 40.848 18.85 45.723 18.125L45.973 20.525C40.948 21.525 35.498 21.575 31.498 21.575ZM56.4461 13.4H72.7211V16.05H56.4461V13.4ZM54.0211 20.9H74.9711V23.625H54.0211V20.9ZM62.7961 14.6H66.1211V21.775H62.7961V14.6ZM56.4461 4.65H72.5461V7.325H59.7711V14.55H56.4461V4.65ZM99.7783 3.05H103.128V26.275H99.7783V3.05ZM90.6533 4.675C94.1533 4.675 96.7283 7.875 96.7283 12.925C96.7283 18.025 94.1533 21.225 90.6533 21.225C87.1533 21.225 84.5783 18.025 84.5783 12.925C84.5783 7.875 87.1533 4.675 90.6533 4.675ZM90.6533 7.7C88.9283 7.7 87.7533 9.525 87.7533 12.925C87.7533 16.375 88.9283 18.225 90.6533 18.225C92.3783 18.225 93.5283 16.375 93.5283 12.925C93.5283 9.525 92.3783 7.7 90.6533 7.7ZM109.276 5.1H123.851V7.75H109.276V5.1ZM106.926 20.775H127.851V23.5H106.926V20.775ZM122.451 5.1H125.726V7.775C125.726 11.15 125.726 14.35 124.651 19.4L121.376 19.1C122.451 14.425 122.451 11.05 122.451 7.775V5.1ZM123.151 11.45V13.9L109.001 14.6L108.601 11.925L123.151 11.45ZM132.299 3.8H148.449V10.7H135.724V14.225H132.349V8.225H145.074V6.45H132.299V3.8ZM132.349 12.6H149.024V15.225H132.349V12.6ZM129.899 16.925H150.874V19.6H129.899V16.925ZM138.674 17.9H141.999V26.275H138.674V17.9ZM152.922 20.75H173.872V23.45H152.922V20.75ZM161.622 6.275H164.422V7.6C164.422 12.45 160.922 16.35 155.022 17.425L153.722 14.775C158.872 13.975 161.622 10.8 161.622 7.6V6.275ZM162.297 6.275H165.097V7.6C165.097 10.8 167.847 13.875 173.122 14.65L171.847 17.3C165.847 16.25 162.297 12.45 162.297 7.6V6.275ZM154.647 5H172.072V7.65H154.647V5Z" fill="#232323"/>
<path d="M14 67.375C14.5683 67.375 15.1134 67.5725 15.5152 67.9242C15.9171 68.2758 16.1429 68.7527 16.1429 69.25C16.1429 69.4962 16.0874 69.74 15.9797 69.9675C15.8721 70.195 15.7142 70.4017 15.5152 70.5758C15.3162 70.7499 15.08 70.888 14.82 70.9823C14.5601 71.0765 14.2814 71.125 14 71.125C13.4317 71.125 12.8866 70.9275 12.4848 70.5758C12.0829 70.2242 11.8571 69.7473 11.8571 69.25C11.8571 68.7527 12.0829 68.2758 12.4848 67.9242C12.8866 67.5725 13.4317 67.375 14 67.375ZM14 64C15.5913 64 17.1174 64.5531 18.2426 65.5377C19.3679 66.5223 20 67.8576 20 69.25C20 73.1875 14 79 14 79C14 79 8 73.1875 8 69.25C8 67.8576 8.63214 66.5223 9.75736 65.5377C10.8826 64.5531 12.4087 64 14 64ZM14 65.5C12.8634 65.5 11.7733 65.8951 10.9695 66.5983C10.1658 67.3016 9.71429 68.2554 9.71429 69.25C9.71429 70 9.71429 71.5 14 76.5325C18.2857 71.5 18.2857 70 18.2857 69.25C18.2857 68.2554 17.8342 67.3016 17.0305 66.5983C16.2267 65.8951 15.1366 65.5 14 65.5Z" fill="#63007F"/>
<path fill-rule="evenodd" clip-rule="evenodd" d="M9 136.5C9 137.485 9.19399 138.46 9.5709 139.37C9.94781 140.28 10.5003 141.107 11.1967 141.803C11.8931 142.5 12.7199 143.052 13.6299 143.429C14.5398 143.806 15.5151 144 16.5 144C17.4849 144 18.4602 143.806 19.3701 143.429C20.2801 143.052 21.1069 142.5 21.8033 141.803C22.4997 141.107 23.0522 140.28 23.4291 139.37C23.806 138.46 24 137.485 24 136.5C24 134.511 23.2098 132.603 21.8033 131.197C20.3968 129.79 18.4891 129 16.5 129C14.5109 129 12.6032 129.79 11.1967 131.197C9.79018 132.603 9 134.511 9 136.5ZM23.1176 136.5C23.1176 138.255 22.4204 139.938 21.1794 141.179C19.9383 142.42 18.2551 143.118 16.5 143.118C14.7449 143.118 13.0617 142.42 11.8206 141.179C10.5796 139.938 9.88235 138.255 9.88235 136.5C9.88235 134.745 10.5796 133.062 11.8206 131.821C13.0617 130.58 14.7449 129.882 16.5 129.882C18.2551 129.882 19.9383 130.58 21.1794 131.821C22.4204 133.062 23.1176 134.745 23.1176 136.5Z" fill="#63007F"/>
<path fill-rule="evenodd" clip-rule="evenodd" d="M13.4117 136.5C13.4117 140.379 14.6841 143.559 16.5 143.559C18.3159 143.559 19.5882 140.379 19.5882 136.5C19.5882 132.621 18.3159 129.441 16.5 129.441C14.6841 129.441 13.4117 132.621 13.4117 136.5ZM18.7059 136.5C18.7059 139.931 17.6073 142.676 16.5 142.676C15.3926 142.676 14.2941 139.931 14.2941 136.5C14.2941 133.069 15.3926 130.324 16.5 130.324C17.6073 130.324 18.7059 133.069 18.7059 136.5Z" fill="#63007F"/>
<path d="M10.972 132.363L11.5632 131.709C11.6576 131.793 11.7582 131.876 11.8659 131.957C13.0288 132.828 14.8641 133.36 16.8644 133.36C18.57 133.36 20.1618 132.974 21.3247 132.31C21.5926 132.158 21.8458 131.982 22.0809 131.783L22.6544 132.453C22.3915 132.678 22.0932 132.886 21.7632 133.075C20.46 133.82 18.7173 134.242 16.8644 134.242C14.685 134.242 12.6626 133.657 11.3365 132.663C11.2104 132.568 11.0888 132.469 10.972 132.363ZM10.972 140.647L11.5632 141.3C11.6576 141.215 11.7582 141.132 11.8659 141.053C13.0288 140.181 14.8641 139.65 16.8644 139.65C18.57 139.65 20.1618 140.035 21.3247 140.7C21.6079 140.862 21.8612 141.039 22.0809 141.226L22.6544 140.555C22.3774 140.321 22.079 140.113 21.7632 139.934C20.46 139.189 18.7173 138.768 16.8644 138.768C14.685 138.768 12.6626 139.353 11.3365 140.346C11.2076 140.443 11.0859 140.544 10.972 140.647ZM9.44116 136.941V136.059H23.5588V136.941H9.44116Z" fill="#63007F"/>
<path d="M14 99.6C15.4852 99.6 16.9096 99.01 17.9598 97.9598C19.01 96.9096 19.6 95.4852 19.6 94C19.6 92.5148 19.01 91.0904 17.9598 90.0402C16.9096 88.99 15.4852 88.4 14 88.4C12.5148 88.4 11.0904 88.99 10.0402 90.0402C8.99 91.0904 8.4 92.5148 8.4 94C8.4 95.4852 8.99 96.9096 10.0402 97.9598C11.0904 99.01 12.5148 99.6 14 99.6ZM14 87C14.9193 87 15.8295 87.1811 16.6788 87.5328C17.5281 87.8846 18.2997 88.4002 18.9497 89.0503C19.5998 89.7003 20.1154 90.4719 20.4672 91.3212C20.8189 92.1705 21 93.0807 21 94C21 95.8565 20.2625 97.637 18.9497 98.9497C17.637 100.263 15.8565 101 14 101C10.129 101 7 97.85 7 94C7 92.1435 7.7375 90.363 9.05025 89.0503C10.363 87.7375 12.1435 87 14 87ZM14.35 90.5V94.175L17.5 96.044L16.975 96.905L13.3 94.7V90.5H14.35Z" fill="#63007F"/>
<path d="M22.75 119.575V121.45C22.7507 121.624 22.7151 121.796 22.6453 121.956C22.5756 122.115 22.4733 122.258 22.345 122.376C22.2168 122.494 22.0654 122.583 21.9005 122.639C21.7356 122.695 21.5609 122.716 21.3875 122.7C19.4643 122.491 17.6169 121.834 15.9937 120.781C14.4836 119.822 13.2033 118.541 12.2438 117.031C11.1875 115.401 10.5302 113.544 10.325 111.612C10.3094 111.44 10.3299 111.265 10.3853 111.101C10.4407 110.937 10.5297 110.785 10.6467 110.657C10.7637 110.529 10.9061 110.427 11.0649 110.357C11.2236 110.286 11.3952 110.25 11.5688 110.25H13.4438C13.7471 110.247 14.0411 110.354 14.2711 110.552C14.5011 110.75 14.6513 111.025 14.6938 111.325C14.7729 111.925 14.9197 112.514 15.1313 113.081C15.2153 113.305 15.2335 113.548 15.1837 113.782C15.1338 114.016 15.018 114.23 14.85 114.4L14.0563 115.194C14.946 116.758 16.2415 118.054 17.8063 118.944L18.6 118.15C18.7699 117.982 18.9845 117.866 19.2182 117.816C19.4519 117.766 19.695 117.785 19.9187 117.869C20.4858 118.08 21.075 118.227 21.675 118.306C21.9786 118.349 22.2559 118.502 22.4541 118.736C22.6523 118.97 22.7576 119.268 22.75 119.575Z" stroke="#63007F" stroke-width="2" stroke-linecap="round" stroke-linejoin="round"/>
<defs>
<linearGradient id="paint0_linear_65_854" x1="23.7358" y1="44.8558" x2="12.4664" y2="44.6168" gradientUnits="userSpaceOnUse">
<stop stop-color="#DF9652"/>
<stop offset="1" stop-color="#B47820"/>
</linearGradient>
</defs>
</svg>
