<svg width="144" height="23" viewBox="0 0 144 23" fill="none" xmlns="http://www.w3.org/2000/svg">
<rect width="22.5" height="22.5" transform="translate(61.25 0.25)" fill="#F3C8F7"/>
<path d="M72.5 15.6356L75.9219 14.7193L77.3516 19.375L72.5 15.6356ZM80.375 9.61792H74.3516L72.5 3.625L70.6484 9.61792H64.625L69.5 13.3325L67.6484 19.3255L72.5234 15.6108L75.5234 13.3325L80.375 9.61792Z" fill="white"/>
<rect width="22.5" height="22.5" transform="translate(92)" fill="#F3C8F7"/>
<path d="M103.25 15.3856L106.672 14.4693L108.102 19.125L103.25 15.3856ZM111.125 9.36792H105.102L103.25 3.375L101.398 9.36792H95.375L100.25 13.0825L98.3984 19.0755L103.273 15.3608L106.273 13.0825L111.125 9.36792Z" fill="white"/>
<rect width="22.5" height="22.5" transform="translate(121)" fill="#F3C8F7"/>
<path d="M132.25 15.3856L135.672 14.4693L137.102 19.125L132.25 15.3856ZM140.125 9.36792H134.102L132.25 3.375L130.398 9.36792H124.375L129.25 13.0825L127.398 19.0755L132.273 15.3608L135.273 13.0825L140.125 9.36792Z" fill="white"/>
<rect width="22.5" height="22.5" transform="translate(32)" fill="#F3C8F7"/>
<path d="M43.25 15.3856L46.6719 14.4693L48.1016 19.125L43.25 15.3856ZM51.125 9.36792H45.1016L43.25 3.375L41.3984 9.36792H35.375L40.25 13.0825L38.3984 19.0755L43.2734 15.3608L46.2734 13.0825L51.125 9.36792Z" fill="white"/>
<rect width="22.5" height="22.5" transform="translate(3)" fill="#F3C8F7"/>
<path d="M14.25 15.3856L17.6719 14.4693L19.1016 19.125L14.25 15.3856ZM22.125 9.36792H16.1016L14.25 3.375L12.3984 9.36792H6.375L11.25 13.0825L9.39844 19.0755L14.2734 15.3608L17.2734 13.0825L22.125 9.36792Z" fill="white"/>
</svg>
