<svg width="87" height="44" viewBox="0 0 87 44" fill="none" xmlns="http://www.w3.org/2000/svg">
<path fill-rule="evenodd" clip-rule="evenodd" d="M37.6853 4.8603C40.9657 1.57989 46.2843 1.57989 49.5647 4.8603C52.8451 8.1407 52.8451 13.4593 49.5647 16.7397L43.625 22.6794L37.6853 16.7397C34.4049 13.4593 34.4049 8.1407 37.6853 4.8603ZM43.625 13.2C44.9505 13.2 46.025 12.1255 46.025 10.8C46.025 9.47451 44.9505 8.39999 43.625 8.39999C42.2995 8.39999 41.225 9.47451 41.225 10.8C41.225 12.1255 42.2995 13.2 43.625 13.2Z" fill="#64748B"/>
<path d="M12.816 32.5H16.092V33.328H12.816V32.5ZM12.816 35.932H16.092V36.76H12.816V35.932ZM10.824 30.916C12.396 30.916 13.524 32.392 13.524 34.696C13.524 37.012 12.396 38.488 10.824 38.488C9.24003 38.488 8.12403 37.012 8.12403 34.696C8.12403 32.392 9.24003 30.916 10.824 30.916ZM10.824 31.816C9.78003 31.816 9.06003 32.944 9.06003 34.696C9.06003 36.46 9.78003 37.612 10.824 37.612C11.868 37.612 12.588 36.46 12.588 34.696C12.588 32.944 11.868 31.816 10.824 31.816ZM15.876 30.076H16.86V40.948H15.876V30.076ZM21.6951 30.7H22.5231V31.816C22.5231 33.916 21.3351 35.632 19.4751 36.328L18.9591 35.512C20.6151 34.924 21.6951 33.472 21.6951 31.816V30.7ZM21.8751 30.7H22.6911V31.78C22.6911 33.316 23.7471 34.672 25.3311 35.224L24.7911 36.004C23.0391 35.344 21.8751 33.748 21.8751 31.78V30.7ZM26.8911 30.088H27.8871V36.508H26.8911V30.088ZM24.3231 36.82C26.5551 36.82 27.9351 37.576 27.9351 38.872C27.9351 40.168 26.5551 40.912 24.3231 40.912C22.0791 40.912 20.6991 40.168 20.6991 38.872C20.6991 37.576 22.0791 36.82 24.3231 36.82ZM24.3231 37.612C22.6911 37.612 21.6951 38.08 21.6951 38.872C21.6951 39.664 22.6911 40.132 24.3231 40.132C25.9551 40.132 26.9511 39.664 26.9511 38.872C26.9511 38.08 25.9551 37.612 24.3231 37.612ZM24.5391 32.38H27.1071V33.208H24.5391V32.38ZM38.9339 33.076H41.6699V33.892H38.9339V33.076ZM41.1059 30.1H42.1019V38.044H41.1059V30.1ZM35.1779 39.88H42.4019V40.696H35.1779V39.88ZM35.1779 37.348H36.1739V40.3H35.1779V37.348ZM35.9459 31.444H36.7619V32.32C36.7619 34.288 35.5379 35.992 33.7259 36.664L33.2099 35.872C34.8299 35.296 35.9459 33.856 35.9459 32.32V31.444ZM36.1379 31.444H36.9419V32.308C36.9419 33.712 37.9979 35.08 39.5699 35.632L39.0659 36.412C37.3019 35.776 36.1379 34.144 36.1379 32.308V31.444ZM33.5219 30.976H39.3179V31.78H33.5219V30.976ZM46.637 33.76H47.621V35.812H46.637V33.76ZM50.621 33.76H51.605V35.812H50.621V33.76ZM44.213 35.452H54.017V36.256H44.213V35.452ZM49.109 37.072C51.437 37.072 52.829 37.756 52.829 38.992C52.829 40.228 51.437 40.924 49.109 40.924C46.781 40.924 45.389 40.228 45.389 38.992C45.389 37.756 46.781 37.072 49.109 37.072ZM49.109 37.84C47.417 37.84 46.397 38.26 46.397 38.992C46.397 39.736 47.417 40.144 49.109 40.144C50.813 40.144 51.821 39.736 51.821 38.992C51.821 38.26 50.813 37.84 49.109 37.84ZM49.121 30.28C51.473 30.28 52.937 31.036 52.937 32.308C52.937 33.568 51.473 34.312 49.121 34.312C46.757 34.312 45.305 33.568 45.305 32.308C45.305 31.036 46.757 30.28 49.121 30.28ZM49.121 31.06C47.393 31.06 46.325 31.516 46.325 32.308C46.325 33.088 47.393 33.544 49.121 33.544C50.849 33.544 51.917 33.088 51.917 32.308C51.917 31.516 50.849 31.06 49.121 31.06ZM61.2958 31.024H62.1118V32.968C62.1118 35.464 60.7678 37.78 58.9918 38.68L58.3798 37.864C59.9878 37.096 61.2958 35.02 61.2958 32.968V31.024ZM61.4638 31.024H62.2798V32.968C62.2798 34.948 63.5758 36.94 65.1838 37.684L64.5838 38.476C62.8198 37.612 61.4638 35.38 61.4638 32.968V31.024ZM66.3118 30.076H67.3078V40.948H66.3118V30.076ZM75.0469 32.044H77.8189V32.872H75.0469V32.044ZM77.3989 30.088H78.3949V35.68H77.3989V30.088ZM71.4109 36.244H78.3949V38.836H72.4189V40.48H71.4469V38.092H77.4109V37.036H71.4109V36.244ZM71.4469 40H78.8029V40.792H71.4469V40ZM72.1789 30.424H72.9949V31.444C72.9949 33.448 71.7949 35.068 69.9829 35.716L69.4669 34.924C71.0989 34.372 72.1789 33.016 72.1789 31.444V30.424ZM72.3469 30.424H73.1509V31.444C73.1509 32.86 74.2429 34.168 75.8149 34.684L75.2989 35.464C73.5469 34.84 72.3469 33.28 72.3469 31.444V30.424Z" fill="#64748B"/>
</svg>
