<svg width="87" height="44" viewBox="0 0 87 44" fill="none" xmlns="http://www.w3.org/2000/svg">
<path fill-rule="evenodd" clip-rule="evenodd" d="M35.1809 6.20588C37.0554 4.33136 40.0946 4.33136 41.9691 6.20588L43.375 7.61176L44.7809 6.20588C46.6554 4.33136 49.6946 4.33136 51.5691 6.20588C53.4436 8.08039 53.4436 11.1196 51.5691 12.9941L43.375 21.1882L35.1809 12.9941C33.3064 11.1196 33.3064 8.08039 35.1809 6.20588Z" fill="#64748B"/>
<path d="M26.3969 31.216H27.3569C27.3569 34.348 26.2769 37.228 22.4609 39.148L21.8969 38.38C25.2449 36.7 26.3969 34.288 26.3969 31.324V31.216ZM22.4849 31.216H26.9969V32.02H22.4849V31.216ZM26.3369 33.904V34.66L22.1009 35.056L21.9329 34.192L26.3369 33.904ZM29.8169 30.088H30.8129V40.936H29.8169V30.088ZM27.3329 34.432H30.2969V35.26H27.3329V34.432ZM35.4199 36.628H36.4159V41.02H35.4199V36.628ZM39.2719 36.628H40.2679V41.02H39.2719V36.628ZM32.9239 36.364H42.7639V37.18H32.9239V36.364ZM34.1719 30.676H41.4919V34.9H34.1719V30.676ZM40.5199 31.468H35.1559V34.108H40.5199V31.468ZM51.859 30.088H52.855V40.936H51.859V30.088ZM44.659 31.144H45.643V37.864H44.659V31.144ZM44.659 37.276H45.547C47.191 37.276 48.907 37.156 50.743 36.772L50.863 37.624C48.979 38.008 47.263 38.14 45.547 38.14H44.659V37.276ZM55.6981 37.504H56.5621C58.5901 37.504 60.0061 37.444 61.6741 37.168L61.7701 37.972C60.0661 38.272 58.6261 38.332 56.5621 38.332H55.6981V37.504ZM55.6981 31.072H60.9541V31.9H56.6821V37.792H55.6981V31.072ZM56.4421 34.108H60.5581V34.912H56.4421V34.108ZM62.9101 30.088H63.9061V40.936H62.9101V30.088Z" fill="#64748B"/>
</svg>
