<svg width="86" height="44" viewBox="0 0 86 44" fill="none" xmlns="http://www.w3.org/2000/svg">
<path fill-rule="evenodd" clip-rule="evenodd" d="M52.725 12C52.725 17.3019 48.4269 21.6 43.125 21.6C37.8231 21.6 33.525 17.3019 33.525 12C33.525 6.69806 37.8231 2.39999 43.125 2.39999C48.4269 2.39999 52.725 6.69806 52.725 12ZM45.525 8.39999C45.525 9.72548 44.4505 10.8 43.125 10.8C41.7995 10.8 40.725 9.72548 40.725 8.39999C40.725 7.07451 41.7995 5.99999 43.125 5.99999C44.4505 5.99999 45.525 7.07451 45.525 8.39999ZM43.1249 13.2C40.7039 13.2 38.6177 14.6339 37.6695 16.6989C38.9898 18.2304 40.9442 19.2 43.125 19.2C45.3057 19.2 47.26 18.2305 48.5804 16.699C47.6322 14.634 45.546 13.2 43.1249 13.2Z" fill="#64748B"/>
<path d="M16.5473 31.168H21.5273V38.188H16.5473V31.168ZM20.5553 31.972H17.5193V37.384H20.5553V31.972ZM23.4593 30.088H24.4673V40.936H23.4593V30.088ZM24.2273 34.42H26.2433V35.26H24.2273V34.42ZM35.0384 30.076H36.0344V40.948H35.0384V30.076ZM30.3104 30.916C31.9184 30.916 33.0704 32.392 33.0704 34.696C33.0704 37.012 31.9184 38.488 30.3104 38.488C28.7144 38.488 27.5624 37.012 27.5624 34.696C27.5624 32.392 28.7144 30.916 30.3104 30.916ZM30.3104 31.816C29.2544 31.816 28.5104 32.944 28.5104 34.696C28.5104 36.46 29.2544 37.612 30.3104 37.612C31.3784 37.612 32.1104 36.46 32.1104 34.696C32.1104 32.944 31.3784 31.816 30.3104 31.816ZM46.5095 30.088H47.4695V40.936H46.5095V30.088ZM42.9335 34.216H44.7335V35.092H42.9335V34.216ZM44.4095 30.352H45.3575V40.372H44.4095V30.352ZM38.3015 31.456H43.2575V32.272H38.3015V31.456ZM38.2055 38.272L38.0855 37.432C39.4895 37.432 41.8415 37.384 43.4855 37.168L43.5575 37.9C41.8655 38.224 39.5975 38.272 38.2055 38.272ZM39.1895 31.984H40.1015V37.66H39.1895V31.984ZM41.4455 31.984H42.3575V37.66H41.4455V31.984ZM57.1165 30.076H58.1125V40.948H57.1165V30.076ZM52.3885 30.916C53.9965 30.916 55.1485 32.392 55.1485 34.696C55.1485 37.012 53.9965 38.488 52.3885 38.488C50.7925 38.488 49.6405 37.012 49.6405 34.696C49.6405 32.392 50.7925 30.916 52.3885 30.916ZM52.3885 31.816C51.3325 31.816 50.5885 32.944 50.5885 34.696C50.5885 36.46 51.3325 37.612 52.3885 37.612C53.4565 37.612 54.1885 36.46 54.1885 34.696C54.1885 32.944 53.4565 31.816 52.3885 31.816ZM63.1516 31.636H63.9556V33.4C63.9556 35.692 62.5756 37.996 60.8476 38.848L60.2716 38.056C61.8436 37.312 63.1516 35.272 63.1516 33.4V31.636ZM63.3436 31.636H64.1476V33.4C64.1476 35.236 65.4556 37.108 67.0516 37.792L66.4876 38.584C64.7356 37.768 63.3436 35.656 63.3436 33.4V31.636ZM60.6316 31.192H66.6916V32.032H60.6316V31.192ZM68.1556 30.088H69.1516V40.936H68.1556V30.088Z" fill="#64748B"/>
</svg>
