<svg width="87" height="44" viewBox="0 0 87 44" fill="none" xmlns="http://www.w3.org/2000/svg">
<path d="M43.9735 2.7515C43.5049 2.28287 42.7451 2.28287 42.2765 2.7515L33.8765 11.1515C33.4078 11.6201 33.4078 12.3799 33.8765 12.8486C34.3451 13.3172 35.1049 13.3172 35.5735 12.8486L35.925 12.4971V20.4C35.925 21.0628 36.4623 21.6 37.125 21.6H39.525C40.1877 21.6 40.725 21.0628 40.725 20.4V18C40.725 17.3373 41.2623 16.8 41.925 16.8H44.325C44.9877 16.8 45.525 17.3373 45.525 18V20.4C45.525 21.0628 46.0623 21.6 46.725 21.6H49.125C49.7877 21.6 50.325 21.0628 50.325 20.4V12.4971L50.6765 12.8486C51.1451 13.3172 51.9049 13.3172 52.3735 12.8486C52.8422 12.3799 52.8422 11.6201 52.3735 11.1515L43.9735 2.7515Z" fill="#64748B"/>
<path d="M15.7875 30.544H22.7715V31.348H15.7875V30.544ZM14.5395 34.372H24.3675V35.176H14.5395V34.372ZM18.9315 34.708H19.9155V36.868H18.9315V34.708ZM22.1235 30.544H23.0955V31.264C23.0955 32.104 23.0955 33.208 22.7595 34.72L21.7875 34.6C22.1235 33.124 22.1235 32.08 22.1235 31.264V30.544ZM18.9075 37.324H19.7595V37.708C19.7595 39.424 17.8635 40.6 15.6195 40.888L15.2835 40.132C17.2275 39.88 18.9075 38.92 18.9075 37.708V37.324ZM19.0755 37.324H19.9275V37.708C19.9275 38.944 21.5955 39.892 23.5635 40.132L23.2155 40.888C20.9715 40.588 19.0755 39.46 19.0755 37.708V37.324ZM29.6543 30.412H37.6223V31.192H29.6543V30.412ZM29.7023 33.256H37.5743V34.024H29.7023V33.256ZM31.2983 30.712H32.2943V33.76H31.2983V30.712ZM34.9943 30.712H35.9783V33.76H34.9943V30.712ZM28.7423 34.924H38.5463V35.728H28.7423V34.924ZM29.9303 36.676H37.2983V39.052H30.9383V40.36H29.9543V38.344H36.3143V37.42H29.9303V36.676ZM29.9543 40.06H37.6223V40.816H29.9543V40.06ZM40.1414 37.444H40.8614C42.1814 37.444 43.4054 37.396 44.8934 37.144L44.9774 37.96C43.4534 38.224 42.2294 38.272 40.8614 38.272H40.1414V37.444ZM40.1174 31.276H43.9934V35.056H41.1134V37.78H40.1414V34.252H43.0334V32.092H40.1174V31.276ZM48.0374 30.088H48.9974V40.936H48.0374V30.088ZM44.5094 33.976H46.2614V34.804H44.5094V33.976ZM45.8534 30.352H46.7774V40.372H45.8534V30.352ZM58.7044 30.076H59.7004V40.948H58.7044V30.076ZM53.9764 30.916C55.5844 30.916 56.7364 32.392 56.7364 34.696C56.7364 37.012 55.5844 38.488 53.9764 38.488C52.3804 38.488 51.2284 37.012 51.2284 34.696C51.2284 32.392 52.3804 30.916 53.9764 30.916ZM53.9764 31.816C52.9204 31.816 52.1764 32.944 52.1764 34.696C52.1764 36.46 52.9204 37.612 53.9764 37.612C55.0444 37.612 55.7764 36.46 55.7764 34.696C55.7764 32.944 55.0444 31.816 53.9764 31.816ZM66.2155 30.832H67.0795V31.66C67.0795 34.024 64.8835 35.86 62.7115 36.352L62.2675 35.524C64.1755 35.164 66.2155 33.508 66.2155 31.66V30.832ZM66.3955 30.832H67.2595V31.66C67.2595 33.52 69.3115 35.164 71.2075 35.524L70.7635 36.352C68.6035 35.86 66.3955 34.036 66.3955 31.66V30.832ZM61.8715 38.656H71.6995V39.472H61.8715V38.656Z" fill="#64748B"/>
</svg>
